<svg width="193" height="107" viewBox="0 0 193 107" fill="none" xmlns="http://www.w3.org/2000/svg">
<path d="M140.187 53.4996L81.7435 62.2371L42.7163 53.4996C42.7163 53.4996 23.2998 53.4996 23.2998 27.0932C23.2998 0.686765 42.7163 0.686768 42.7163 0.686768H140.187V53.4996Z" fill="#AB7B64"/>
<path d="M140.187 48.6999V53.4996L83.9317 59.5828L42.7163 53.4996C42.7163 53.4996 33.4003 53.4996 27.6763 44.7195C30.8839 45.733 33.3032 45.733 33.3032 45.733H125.038C128.739 47.7174 132.972 48.8397 137.469 48.8397C138.385 48.8397 139.294 48.7931 140.187 48.6999Z" fill="#9A6A53"/>
<path d="M64.4628 20.6858H23.7308C24.0376 18.5189 24.5036 16.585 25.0861 14.8608H64.4628C66.0704 14.8608 67.3752 16.1656 67.3752 17.7733C67.3752 19.381 66.0704 20.6858 64.4628 20.6858Z" fill="#AB7B64"/>
<path d="M83.2968 36.4131C83.2968 38.0208 81.992 39.3256 80.3843 39.3256H25.0861C24.5036 37.6014 24.0376 35.6675 23.7308 33.5006H80.3843C81.992 33.5006 83.2968 34.8054 83.2968 36.4131Z" fill="#AB7B64"/>
<path d="M94.9466 17.7733C94.9466 19.381 93.6419 20.6858 92.0342 20.6858H80.3843C78.7766 20.6858 77.4718 19.381 77.4718 17.7733C77.4718 16.1656 78.7766 14.8608 80.3843 14.8608H92.0342C93.6419 14.8608 94.9466 16.1656 94.9466 17.7733Z" fill="#AB7B64"/>
<path d="M117.47 36.4131C117.47 38.0208 116.165 39.3256 114.557 39.3256H99.0242C97.4165 39.3256 96.1117 38.0208 96.1117 36.4131C96.1117 34.8054 97.4165 33.5006 99.0242 33.5006H114.557C116.165 33.5006 117.47 34.8054 117.47 36.4131Z" fill="#AB7B64"/>
<path d="M67.3752 17.7733C67.3752 19.381 66.0704 20.6858 64.4628 20.6858H23.7308C24.0376 18.5189 24.5036 16.585 25.0861 14.8608H64.4628C66.0704 14.8608 67.3752 16.1656 67.3752 17.7733Z" fill="#9A6A53"/>
<path d="M94.9466 17.7733C94.9466 19.381 93.6419 20.6858 92.0342 20.6858H80.3843C78.7766 20.6858 77.4718 19.381 77.4718 17.7733C77.4718 16.1656 78.7766 14.8608 80.3843 14.8608H92.0342C93.6419 14.8608 94.9466 16.1656 94.9466 17.7733Z" fill="#9A6A53"/>
<path d="M83.2968 36.4131C83.2968 38.0208 81.992 39.3256 80.3843 39.3256H25.0861C24.5036 37.6014 24.0376 35.6675 23.7308 33.5006H80.3843C81.992 33.5006 83.2968 34.8054 83.2968 36.4131Z" fill="#9A6A53"/>
<path d="M122.324 39.3256H99.0242C97.4165 39.3256 96.1117 38.0208 96.1117 36.4131C96.1117 34.8054 97.4165 33.5006 99.0242 33.5006H118.441H118.448L122.324 39.3256Z" fill="#9A6A53"/>
<path d="M140.187 53.4996C154.771 53.4996 166.594 41.6771 166.594 27.0932C166.594 12.5093 154.771 0.686768 140.187 0.686768C125.603 0.686768 113.781 12.5093 113.781 27.0932C113.781 41.6771 125.603 53.4996 140.187 53.4996Z" fill="#F3D69E"/>
<path d="M166.594 27.0933C166.594 41.6789 154.773 53.4997 140.187 53.4997C133.061 53.4997 126.596 50.6765 121.846 46.0865C125.998 48.8087 130.964 50.3931 136.304 50.3931C150.89 50.3931 162.71 38.5723 162.71 23.9866C162.71 16.5268 159.619 9.78928 154.645 4.99341C161.84 9.71162 166.594 17.8471 166.594 27.0933Z" fill="#EFCB83"/>
<path d="M126.892 36.4022C125.809 36.4022 124.77 35.7957 124.267 34.7553C123.107 32.3523 122.518 29.7742 122.518 27.0936C122.518 17.3508 130.444 9.42456 140.187 9.42456C141.796 9.42456 143.1 10.7282 143.1 12.337C143.1 13.9459 141.796 15.2495 140.187 15.2495C133.657 15.2495 128.343 20.563 128.343 27.0936C128.343 28.89 128.737 30.6157 129.513 32.223C130.212 33.6711 129.605 35.4128 128.156 36.1122C127.748 36.309 127.316 36.4022 126.892 36.4022Z" fill="#EDC472"/>
<path d="M140.187 44.7622C138.331 44.7622 136.499 44.4737 134.744 43.904C133.214 43.4081 132.375 41.7651 132.872 40.2355C133.368 38.7047 135.012 37.8655 136.54 38.3637C137.715 38.7443 138.942 38.9377 140.187 38.9377C146.718 38.9377 152.031 33.6242 152.031 27.0936C152.031 25.4848 153.335 24.1812 154.944 24.1812C156.553 24.1812 157.856 25.4848 157.856 27.0936C157.856 36.836 149.93 44.7622 140.187 44.7622Z" fill="#EDC472"/>
<path d="M113.781 106.313H19.4165C19.4165 106.313 0 106.772 0 80.136C0 53.4996 19.4165 53.4996 19.4165 53.4996H113.781V106.313Z" fill="#AB7B64"/>
<path d="M113.781 98.5459V106.312H19.4165C19.4165 106.312 10.6286 106.518 4.87744 98.5459H113.781Z" fill="#9A6A53"/>
<path d="M20.5388 72.7219H0.574768C0.939798 70.5434 1.46404 68.6095 2.10867 66.897H20.5388C22.1465 66.897 23.4513 68.2018 23.4513 69.8094C23.4513 71.4171 22.1465 72.7219 20.5388 72.7219Z" fill="#AB7B64"/>
<path d="M39.4155 89.6143C39.4155 91.2219 38.1107 92.5267 36.503 92.5267H1.8174C1.23102 90.8064 0.761142 88.8764 0.446594 86.7018H36.503C38.1107 86.7018 39.4155 88.0066 39.4155 89.6143Z" fill="#AB7B64"/>
<path d="M91.84 89.6143C91.84 91.2219 90.5352 92.5267 88.9275 92.5267H67.5694C65.9617 92.5267 64.6569 91.2219 64.6569 89.6143C64.6569 88.0066 65.9617 86.7018 67.5694 86.7018H88.9275C90.5352 86.7018 91.84 88.0066 91.84 89.6143Z" fill="#AB7B64"/>
<path d="M89.3159 72.7219H46.5996C44.9919 72.7219 43.6871 71.4171 43.6871 69.8094C43.6871 68.2018 44.9919 66.897 46.5996 66.897H89.3159C90.9236 66.897 92.2284 68.2018 92.2284 69.8094C92.2284 71.4171 90.9236 72.7219 89.3159 72.7219Z" fill="#AB7B64"/>
<path d="M166.594 53.4996H112.041V106.313L167.032 106.306L166.594 53.4996Z" fill="#AB7B64"/>
<path d="M167.032 106.305L113.781 106.312V98.5458L166.966 98.5381L167.032 106.305Z" fill="#9A6A53"/>
<path d="M166.594 106.313C181.177 106.313 193 94.49 193 79.9061C193 65.3222 181.177 53.4996 166.594 53.4996C152.01 53.4996 140.187 65.3222 140.187 79.9061C140.187 94.49 152.01 106.313 166.594 106.313Z" fill="#F3D69E"/>
<path d="M162.288 96.9352C162.005 96.9352 161.719 96.894 161.435 96.807C154.069 94.5551 148.925 87.6055 148.925 79.9065C148.925 73.7297 152.074 68.1021 157.35 64.8525C158.719 64.0091 160.513 64.4351 161.357 65.8047C162.201 67.1743 161.774 68.9684 160.405 69.8119C156.864 71.9927 154.75 75.7665 154.75 79.9061C154.75 85.0674 158.199 89.7266 163.138 91.2368C164.677 91.7071 165.542 93.335 165.072 94.8731C164.688 96.1278 163.535 96.9352 162.288 96.9352Z" fill="#EDC472"/>
<path d="M175.538 94.5496C174.661 94.5496 173.795 94.1554 173.222 93.4056C172.245 92.1276 172.49 90.2997 173.768 89.323C176.736 87.0552 178.437 83.6227 178.437 79.906C178.437 75.9715 176.482 72.3002 173.206 70.086C171.874 69.1854 171.524 67.3746 172.425 66.0419C173.326 64.7099 175.136 64.3593 176.469 65.2606C181.348 68.5594 184.262 74.0345 184.262 79.906C184.262 85.4529 181.726 90.5727 177.304 93.9512C176.777 94.3546 176.155 94.5496 175.538 94.5496Z" fill="#EDC472"/>
<path d="M92.2284 69.8094C92.2284 71.4171 90.9236 72.7219 89.3159 72.7219H46.5996C44.9919 72.7219 43.6871 71.4171 43.6871 69.8094C43.6871 68.2018 44.9919 66.897 46.5996 66.897H89.3159C90.9236 66.897 92.2284 68.2018 92.2284 69.8094Z" fill="#9A6A53"/>
<path d="M23.4512 69.8094C23.4512 71.4171 22.1464 72.7219 20.5387 72.7219H0.574707C0.939737 70.5434 1.46398 68.6095 2.10861 66.897H20.5387C22.1464 66.897 23.4512 68.2018 23.4512 69.8094Z" fill="#9A6A53"/>
<path d="M39.4155 89.6143C39.4155 91.2219 38.1107 92.5267 36.503 92.5267H1.8174C1.23102 90.8064 0.761142 88.8764 0.446594 86.7018H36.503C38.1107 86.7018 39.4155 88.0066 39.4155 89.6143Z" fill="#9A6A53"/>
<path d="M91.84 89.6143C91.84 91.2219 90.5352 92.5267 88.9275 92.5267H67.5694C65.9617 92.5267 64.6569 91.2219 64.6569 89.6143C64.6569 88.0066 65.9617 86.7018 67.5694 86.7018H88.9275C90.5352 86.7018 91.84 88.0066 91.84 89.6143Z" fill="#9A6A53"/>
<path d="M113.781 106.313C128.365 106.313 140.187 94.49 140.187 79.9061C140.187 65.3222 128.365 53.4996 113.781 53.4996C99.1968 53.4996 87.3743 65.3222 87.3743 79.9061C87.3743 94.49 99.1968 106.313 113.781 106.313Z" fill="#F3D69E"/>
<path d="M106.177 95.4634C105.664 95.4634 105.146 95.3282 104.675 95.0444C99.3927 91.8573 96.1117 86.0565 96.1117 79.9065C96.1117 77.1323 96.775 74.3646 98.03 71.9026C98.7605 70.4705 100.515 69.9 101.948 70.6308C103.38 71.3613 103.95 73.115 103.219 74.5483C102.368 76.2185 101.936 78.0211 101.936 79.9069C101.936 84.0911 104.085 87.8859 107.684 90.0574C109.061 90.8889 109.504 92.6787 108.673 94.0561C108.126 94.9617 107.164 95.4634 106.177 95.4634Z" fill="#EDC472"/>
<path d="M119.52 96.4144C118.386 96.4144 117.308 95.7476 116.838 94.6374C116.21 93.1567 116.902 91.4468 118.383 90.8193C122.782 88.9557 125.624 84.672 125.624 79.9061C125.624 73.3755 120.311 68.062 113.78 68.062C112.171 68.062 110.868 66.7584 110.868 65.1495C110.868 63.5407 112.171 62.2371 113.78 62.2371C123.523 62.2371 131.449 70.1633 131.449 79.9061C131.449 87.0156 127.212 93.4048 120.655 96.1825C120.284 96.3402 119.899 96.4144 119.52 96.4144Z" fill="#EDC472"/>
<path d="M193 79.906C193 94.4917 181.179 106.312 166.594 106.312C155.883 106.312 146.664 99.94 142.521 90.7793C147.321 97.3692 155.095 101.653 163.875 101.653C178.461 101.653 190.282 89.8317 190.282 75.2461C190.282 71.3705 189.447 67.693 187.948 64.3767C191.128 68.7338 193 74.1005 193 79.906Z" fill="#EFCB83"/>
<path d="M140.187 79.906C140.187 81.8593 139.974 83.7583 139.574 85.5912C136.976 97.443 126.413 106.312 113.781 106.312C103.071 106.312 93.8516 99.94 89.7081 90.7793C94.5079 97.3692 102.282 101.653 111.062 101.653C125.648 101.653 137.469 89.8317 137.469 75.2461C137.469 71.3705 136.634 67.693 135.135 64.3767C136.308 65.9766 137.298 67.7163 138.082 69.5609C139.438 72.7375 140.187 76.2324 140.187 79.906Z" fill="#EFCB83"/>
</svg>
