<svg width="134" height="136" viewBox="0 0 134 136" fill="none" xmlns="http://www.w3.org/2000/svg">
<path d="M67 0L100.1 17.0346L133.338 33.9308L100.1 50.9654L67 68L33.9002 50.9654L0.661926 33.9308L33.9002 17.0346L67 0Z" fill="#D9AC80"/>
<path d="M108.409 62.1833V46.8105L91.7903 55.2586V70.6313L100.931 59.4134L108.409 62.1833Z" fill="#D7BAA4"/>
<path d="M67 68V136L133.338 102.069V33.9308L108.409 46.8106L107.855 47.0876V62.0448L100.931 59.4135L91.7902 70.6314V55.2587L67 68Z" fill="#A67E4F"/>
<path d="M67 136V68L33.9002 50.9654L0.661926 33.9308V102.069L67 136Z" fill="#926E43"/>
<path d="M25.5906 21.1894L91.7902 55.2586L107.855 47.0876L108.409 46.8106L42.2098 12.7413L33.9002 17.0346L25.5906 21.1894Z" fill="#F2D3BA"/>
</svg>
