<svg width="153" height="125" viewBox="0 0 153 125" fill="none" xmlns="http://www.w3.org/2000/svg">
<path d="M85.4219 35.0938V45.6562C85.4216 52.6595 82.6394 59.3759 77.6873 64.3279C72.7352 69.28 66.0189 72.0622 59.0156 72.0625H32.6094V56.8789C32.6122 49.7013 35.4647 42.8185 40.5401 37.7432C45.6154 32.6679 52.4982 29.8153 59.6758 29.8125H80.1406C80.8342 29.8123 81.5211 29.9488 82.1619 30.2141C82.8027 30.4795 83.385 30.8685 83.8755 31.3589C84.3659 31.8494 84.7549 32.4316 85.0203 33.0725C85.2856 33.7133 85.4221 34.4002 85.4219 35.0938Z" fill="#349966"/>
<path d="M77.5 43.0156V45.6562C77.5006 49.4709 76.7497 53.2483 75.2902 56.7727C73.8306 60.2971 71.6911 63.4995 68.9937 66.1968C66.2963 68.8942 63.094 71.0337 59.5696 72.4933C56.0452 73.9528 52.2678 74.7037 48.4531 74.7031H22.0469V69.4219H48.4531C54.7549 69.4177 60.7974 66.9125 65.2534 62.4565C69.7094 58.0005 72.2146 51.958 72.2188 45.6562V43.0156H77.5Z" fill="#008051"/>
<path d="M59.0156 67.4414V72.0625H32.6094V56.8789C32.6 49.8582 35.3296 43.1107 40.2177 38.071C45.8262 40.6636 50.576 44.8063 53.9068 50.0104C57.2375 55.2145 59.0102 61.2627 59.0156 67.4414Z" fill="#008051"/>
<path d="M59.0156 67.4414V72.7161C55.6497 74.032 52.0671 74.706 48.4531 74.7031H22.0469V69.4219H48.4531C52.1166 69.427 55.7308 68.5782 59.009 66.943C59.0156 67.108 59.0156 67.2764 59.0156 67.4414Z" fill="#017A4A"/>
<path d="M53.7344 67.4414V103.75H43.1719V82.625H27.3281C20.3249 82.6247 13.6085 79.8425 8.65644 74.8904C3.70438 69.9384 0.922195 63.222 0.921875 56.2188V45.6562C0.921679 44.9627 1.05815 44.2758 1.32349 43.635C1.58883 42.9941 1.97783 42.4119 2.46828 41.9214C2.95873 41.431 3.54101 41.042 4.18185 40.7766C4.82269 40.5113 5.50953 40.3748 6.20312 40.375H26.668C30.2224 40.3749 33.7421 41.0748 37.026 42.435C40.3099 43.7952 43.2938 45.7889 45.8071 48.3022C48.3205 50.8156 50.3142 53.7995 51.6744 57.0834C53.0345 60.3673 53.7345 63.887 53.7344 67.4414Z" fill="#349966"/>
<path d="M43.1719 85.2656H37.8906C30.1896 85.2569 22.8065 82.1938 17.361 76.7484C11.9155 71.3029 8.85245 63.9198 8.84375 56.2188V53.5781H14.125V56.2188C14.1321 62.5196 16.6382 68.5604 21.0936 73.0157C25.549 77.4711 31.5898 79.9773 37.8906 79.9844H43.1719V85.2656Z" fill="#008051"/>
<path d="M127.672 79.9844L114.363 108.503C112.879 111.683 110.776 114.535 108.177 116.893C105.578 119.25 102.535 121.066 99.2258 122.234H79.0976C79.0679 122.119 79.0382 122 79.0151 121.881L76.797 110.804C75.5488 104.552 76.6026 98.0599 79.7643 92.524L95.9844 64.1406L127.672 79.9844Z" fill="#C4D4E0"/>
<path d="M100.942 97.0924L87.2274 122.234H81.2134L96.3079 94.564L100.942 97.0924Z" fill="#A6B2BC"/>
<path d="M127.672 29.8125L100.601 81.4927C100.059 82.5284 99.9187 83.7283 100.208 84.8611C100.498 85.994 101.196 86.9796 102.169 87.6282C102.721 87.9964 103.345 88.2443 103.999 88.3559C104.653 88.4675 105.324 88.4402 105.967 88.2759C106.61 88.1116 107.211 87.814 107.732 87.4022C108.252 86.9905 108.68 86.4738 108.988 85.8859L135.594 35.0938L127.672 29.8125Z" fill="#A6B2BC"/>
<path d="M119.146 57.8462H119.146C121.467 58.8406 124.076 58.9231 126.455 58.0772C128.833 57.2314 130.805 55.5196 131.976 53.2835L151.691 15.6448C152.333 14.4206 152.714 13.077 152.811 11.6984C152.908 10.3199 152.719 8.93609 152.256 7.63399C151.793 6.33188 151.066 5.1396 150.12 4.13199C149.174 3.12438 148.03 2.32323 146.76 1.77883H146.76C144.44 0.784496 141.83 0.702 139.452 1.54782C137.073 2.39365 135.102 4.10552 133.931 6.34155L114.215 43.9803C113.574 45.2045 113.193 46.5481 113.095 47.9266C112.998 49.3052 113.187 50.689 113.65 51.9911C114.113 53.2932 114.84 54.4855 115.786 55.4931C116.732 56.5007 117.876 57.3018 119.146 57.8462Z" fill="#966342"/>
<path d="M64.2969 106.391V116.953H11.4844C11.4844 115.382 11.9518 113.846 12.8272 112.54C13.7027 111.235 14.9465 110.22 16.4006 109.624C17.8546 109.027 19.4532 108.877 20.9929 109.192C22.5326 109.507 23.9439 110.272 25.0473 111.391C24.5734 109.876 24.5659 108.254 25.0257 106.734C25.4855 105.215 26.3914 103.869 27.6258 102.87C28.8603 101.872 30.3662 101.268 31.9483 101.137C33.5303 101.005 35.1154 101.352 36.4977 102.133C37.2062 101.02 38.1817 100.101 39.3355 99.4616C40.4894 98.8217 41.7849 98.4805 43.1042 98.4691C44.4235 98.4576 45.7248 98.7762 46.8895 99.3958C48.0543 100.016 49.0457 100.917 49.7734 102.017C50.7129 100.598 52.0847 99.5186 53.6856 98.94C55.2864 98.3614 57.0311 98.3141 58.661 98.8049C60.2909 99.2957 61.7193 100.299 62.7344 101.665C63.7496 103.031 64.2975 104.688 64.2969 106.391Z" fill="#AD7D4D"/>
<path d="M32.6094 116.953H27.3281C27.3311 114.871 26.5114 112.872 25.0473 111.391C24.7343 110.389 24.6239 109.335 24.7225 108.29C24.8211 107.245 25.1267 106.23 25.6217 105.305C27.7315 106.432 29.4959 108.111 30.7265 110.162C31.9571 112.214 32.6079 114.561 32.6094 116.953Z" fill="#966342"/>
<path d="M45.8125 109.031H40.5313C40.5303 107.627 40.1564 106.248 39.4477 105.036C38.7389 103.824 37.7209 102.822 36.4977 102.133C37.5256 100.52 39.1009 99.3331 40.934 98.7889C42.4587 100.025 43.688 101.586 44.532 103.358C45.3761 105.13 45.8136 107.068 45.8125 109.031Z" fill="#966342"/>
<path d="M3.5625 114.312H64.2969V119.594H3.5625V114.312Z" fill="#966342"/>
<path d="M64.2969 106.391V106.655C61.7619 107.177 59.4356 108.431 57.6054 110.262C55.7752 112.092 54.5212 114.418 53.9985 116.953H48.6446C49.1791 113.283 50.8034 109.858 53.3069 107.121C55.8104 104.385 59.0778 102.463 62.6861 101.604C63.7325 102.981 64.2983 104.662 64.2969 106.391Z" fill="#966342"/>
<path d="M127.672 122.234H53.9984C53.8232 121.365 53.7347 120.48 53.7344 119.594C53.7375 116.555 54.7883 113.611 56.7096 111.257C58.631 108.903 61.3053 107.283 64.2816 106.671C67.2579 106.059 70.3542 106.493 73.0484 107.898C75.7425 109.303 77.8697 111.594 79.0712 114.385C79.4255 114.336 79.7829 114.312 80.1406 114.312C81.2905 114.311 82.4268 114.561 83.4701 115.045C84.5134 115.528 85.4386 116.233 86.1811 117.112C88.1316 115.311 90.689 114.311 93.3437 114.311C95.9985 114.311 98.5559 115.311 100.506 117.112C101.301 116.174 102.302 115.434 103.432 114.951C104.562 114.467 105.788 114.254 107.015 114.326C108.241 114.399 109.434 114.756 110.499 115.37C111.563 115.983 112.47 116.836 113.148 117.861C114.088 116.441 115.46 115.362 117.061 114.784C118.661 114.205 120.406 114.158 122.036 114.649C123.666 115.14 125.094 116.143 126.109 117.509C127.124 118.875 127.672 120.532 127.672 122.234Z" fill="#AD7D4D"/>
<path d="M95.7831 114.596C97.5483 115.013 99.1757 115.879 100.506 117.112C99.2896 118.541 98.6224 120.357 98.625 122.234H93.3437C93.3388 119.496 94.1918 116.825 95.7831 114.596Z" fill="#966342"/>
<path d="M119.75 122.234H114.469C114.471 120.678 114.011 119.156 113.148 117.861C114.148 116.348 115.638 115.225 117.367 114.679C118.921 116.891 119.753 119.53 119.75 122.234Z" fill="#966342"/>
<path d="M79.0712 114.385C77.1741 114.646 75.4354 115.585 74.176 117.027C72.9166 118.47 72.2215 120.319 72.2188 122.234H66.9375C66.9403 119.501 67.7902 116.835 69.3702 114.604C70.9502 112.373 73.1827 110.687 75.7605 109.777C77.1854 111.055 78.3151 112.627 79.0712 114.385Z" fill="#966342"/>
<path d="M45.8125 119.594H148.797V124.875H45.8125V119.594Z" fill="#966342"/>
</svg>
